<svg xmlns="http://www.w3.org/2000/svg" xmlns:xlink="http://www.w3.org/1999/xlink" viewBox="0,0,256,256" width="16px" height="16px" fill-rule="nonzero"><g fill="none" fill-rule="nonzero" stroke="none" stroke-width="1" stroke-linecap="butt" stroke-linejoin="miter" stroke-miterlimit="10" stroke-dasharray="" stroke-dashoffset="0" font-family="none" font-weight="none" font-size="none" text-anchor="none" style="mix-blend-mode: normal"><g transform="scale(16,16)"><path d="M7.5,0.5c-3.86599,0 -7,3.13401 -7,7c0,3.86599 3.13401,7 7,7c3.86599,0 7,-3.13401 7,-7c0,-3.86599 -3.13401,-7 -7,-7z" fill="#ffffff"></path><path d="M7.5,1c3.6,0 6.5,2.9 6.5,6.5c0,3.6 -2.9,6.5 -6.5,6.5c-3.6,0 -6.5,-2.9 -6.5,-6.5c0,-3.6 2.9,-6.5 6.5,-6.5M7.5,0c-4.1,0 -7.5,3.4 -7.5,7.5c0,4.1 3.4,7.5 7.5,7.5c4.1,0 7.5,-3.4 7.5,-7.5c0,-4.1 -3.4,-7.5 -7.5,-7.5z" fill="#ffa0d6"></path><path d="M6.3,10.5l-2.6,-2.6l0.7,-0.7l1.9,1.9l4.9,-4.8l0.7,0.7z" fill="#ffa0d6"></path></g></g></svg>