<svg width="49" height="42" viewBox="0 0 49 42" fill="none" xmlns="http://www.w3.org/2000/svg">
<rect width="49" height="42" fill="#FFD6E8"/>
<path d="M36.2472 5.20954C33.454 5.20954 30.9619 6.33338 29.3331 8.09023L24.5 12.6567V12.6419L19.6669 8.07542C18.0381 6.31857 15.546 5.19473 12.7528 5.19473C7.84616 5.19473 3.86841 8.66146 3.86841 12.9381C3.86841 16.6959 7.52731 19.5046 10.1763 22.203C12.816 24.8911 15.4552 27.5789 18.0943 30.267L24.0192 36.3009C24.1797 36.4642 24.3396 36.6271 24.5 36.7905V36.8053C24.6604 36.6419 24.8203 36.479 24.9807 36.3157C26.9555 34.3045 28.9303 32.2934 30.9057 30.2818C33.5448 27.5937 36.1845 24.9059 38.8236 22.2178C41.4727 19.5199 45.1316 16.7111 45.1316 12.9529C45.1316 8.67627 41.1538 5.20954 36.2472 5.20954Z" fill="white"/>
</svg>
